# xmcd
#
# Track frame offsets: 
#        150
#        14225
#        31297
#        45712
#        62525
#        82025
#        96060
#        110100
#        128475
#        146625
#
# Disc length: 2178 seconds
#
# Revision: 2
# Processed by: cddbd v1.5.2PL0 Copyright (c) Steve Scherf et al.
# Submitted via: ExactAudioCopy v1.0b1
#
DISCID=8808800a
DTITLE=Various Artist - Biggest Country Hits of the 90's - Volume 3
DYEAR=1995
DGENRE=Country
TTITLE0=Mark Chesnutt - Broken Promise Land
TTITLE1=Conway Twitty - Crazy in love
TTITLE2=Marty Stuart - Little Things
TTITLE3=Reba McEntire - 'Till Love Comes Again
TTITLE4=Steve Wariner - There For A While
TTITLE5=Patty Loveless - I'm That Kind of Girl
TTITLE6=Vince Gill with Reba McEntire - Oklahoma Swing
TTITLE7=Lionel Cartwright - Leap of Faith
TTITLE8=McBride and the Ride - Going Out of My Mind
TTITLE9=Oak Ridge Boys - Baby, You'll Be My Baby
EXTD=
EXTT0=Mark Chestnutt
EXTT1=Conway Twitty
EXTT2=Marty Stuart
EXTT3=Reba McEntire
EXTT4=Steve Wariner
EXTT5=Patty Loveless
EXTT6=Vince Gill and Reba McEntire
EXTT7=Lionel Cartwright
EXTT8=McBride and the Ride
EXTT9=Oak Ridge Boys
PLAYORDER=
